<?xml version="1.0" encoding="UTF-8"?>
<!-- Copyright (c) timesheet.io - All rights reserved -->
<svg xmlns="http://www.w3.org/2000/svg" version="1.1" viewBox="0 0 225 225">
  <style>
    path, rect, circle {
      fill: black;
    }
    @media (prefers-color-scheme: dark) {
      path, rect, circle { fill: white; }
    }
  </style>
  <g id="Clock">
    <path fill="#000" d="M112.5,12.5C57.3,12.5,12.5,57.3,12.5,112.5s44.8,100,100,100,100-44.8,100-100S167.7,12.5,112.5,12.5ZM112.5,197.1c-46.7,0-84.6-37.9-84.6-84.6S65.8,27.9,112.5,27.9s84.6,37.9,84.6,84.6-37.9,84.6-84.6,84.6Z"/>
    <path fill="#000" opacity="0.3" d="M 109.5,126.5 L 68.5,167.5 A 70.4,70.4 0 1,1 182.5,104.8 L 124.5,104.8 Z"/>
    <rect fill="#000" height="15.4" width="70" x="112.5" y="104.8"/>
    <rect fill="#000" height="15.4" transform="rotate(135, 112.5, 112.5)" width="70" x="112.5" y="104.8"/>
    <circle fill="#000" cx="112.5" cy="112.5" r="12"/>
  </g>
</svg>
